<svg xmlns="http://www.w3.org/2000/svg" version="1.1" baseProfile="full" width="930" height="653" style="user-select: none; position: absolute; left: 0px; top: 0px;"><path d="M 93.5 593 L 93.5 60" fill="none" stroke="#333" stroke-width="1" paint-order="fill" stroke-opacity="1" stroke-dasharray="" stroke-linecap="round" stroke-linejoin="miter" stroke-miterlimit="10" clip-path="none"></path><text dominant-baseline="ideographic" alignment-baseline="ideographic" x="0" y="0" fill="#333" fill-opacity="1" stroke="none" transform="matrix(6.123234262925839e-17,-1,1,6.123234262925839e-17,63,326.5)" clip-path="none" style="font: 12px sans-serif;"><tspan dominant-baseline="ideographic" alignment-baseline="ideographic" text-anchor="middle" x="0" y="0">TotMut</tspan></text><path d="M 93 593.5 L 837 593.5" fill="none" stroke="#333" stroke-width="1" paint-order="fill" stroke-opacity="1" stroke-dasharray="" stroke-linecap="round" stroke-linejoin="miter" stroke-miterlimit="10" clip-path="none"></path><text dominant-baseline="hanging" alignment-baseline="hanging" x="0" y="0" fill="#333" fill-opacity="1" stroke="none" transform="matrix(1,0,0,1,465,623)" clip-path="none" style="font: 12px sans-serif;"><tspan dominant-baseline="hanging" alignment-baseline="hanging" text-anchor="middle" x="0" y="0">SeqLen</tspan></text><path d="M 93 593.5 L 88 593.5" fill="none" stroke="#333" stroke-width="1" paint-order="fill" stroke-opacity="1" stroke-dasharray="" stroke-linecap="butt" stroke-linejoin="miter" stroke-miterlimit="10" clip-path="none"></path><path d="M 93 504.5 L 88 504.5" fill="none" stroke="#333" stroke-width="1" paint-order="fill" stroke-opacity="1" stroke-dasharray="" stroke-linecap="butt" stroke-linejoin="miter" stroke-miterlimit="10" clip-path="none"></path><path d="M 93 415.5 L 88 415.5" fill="none" stroke="#333" stroke-width="1" paint-order="fill" stroke-opacity="1" stroke-dasharray="" stroke-linecap="butt" stroke-linejoin="miter" stroke-miterlimit="10" clip-path="none"></path><path d="M 93 326.5 L 88 326.5" fill="none" stroke="#333" stroke-width="1" paint-order="fill" stroke-opacity="1" stroke-dasharray="" stroke-linecap="butt" stroke-linejoin="miter" stroke-miterlimit="10" clip-path="none"></path><path d="M 93 237.5 L 88 237.5" fill="none" stroke="#333" stroke-width="1" paint-order="fill" stroke-opacity="1" stroke-dasharray="" stroke-linecap="butt" stroke-linejoin="miter" stroke-miterlimit="10" clip-path="none"></path><path d="M 93 149.5 L 88 149.5" fill="none" stroke="#333" stroke-width="1" paint-order="fill" stroke-opacity="1" stroke-dasharray="" stroke-linecap="butt" stroke-linejoin="miter" stroke-miterlimit="10" clip-path="none"></path><path d="M 93 60.5 L 88 60.5" fill="none" stroke="#333" stroke-width="1" paint-order="fill" stroke-opacity="1" stroke-dasharray="" stroke-linecap="butt" stroke-linejoin="miter" stroke-miterlimit="10" clip-path="none"></path><path d="M 93.5 593 L 93.5 598" fill="none" stroke="#333" stroke-width="1" paint-order="fill" stroke-opacity="1" stroke-dasharray="" stroke-linecap="butt" stroke-linejoin="miter" stroke-miterlimit="10" clip-path="none"></path><path d="M 186.5 593 L 186.5 598" fill="none" stroke="#333" stroke-width="1" paint-order="fill" stroke-opacity="1" stroke-dasharray="" stroke-linecap="butt" stroke-linejoin="miter" stroke-miterlimit="10" clip-path="none"></path><path d="M 279.5 593 L 279.5 598" fill="none" stroke="#333" stroke-width="1" paint-order="fill" stroke-opacity="1" stroke-dasharray="" stroke-linecap="butt" stroke-linejoin="miter" stroke-miterlimit="10" clip-path="none"></path><path d="M 372.5 593 L 372.5 598" fill="none" stroke="#333" stroke-width="1" paint-order="fill" stroke-opacity="1" stroke-dasharray="" stroke-linecap="butt" stroke-linejoin="miter" stroke-miterlimit="10" clip-path="none"></path><path d="M 465.5 593 L 465.5 598" fill="none" stroke="#333" stroke-width="1" paint-order="fill" stroke-opacity="1" stroke-dasharray="" stroke-linecap="butt" stroke-linejoin="miter" stroke-miterlimit="10" clip-path="none"></path><path d="M 558.5 593 L 558.5 598" fill="none" stroke="#333" stroke-width="1" paint-order="fill" stroke-opacity="1" stroke-dasharray="" stroke-linecap="butt" stroke-linejoin="miter" stroke-miterlimit="10" clip-path="none"></path><path d="M 651.5 593 L 651.5 598" fill="none" stroke="#333" stroke-width="1" paint-order="fill" stroke-opacity="1" stroke-dasharray="" stroke-linecap="butt" stroke-linejoin="miter" stroke-miterlimit="10" clip-path="none"></path><path d="M 744.5 593 L 744.5 598" fill="none" stroke="#333" stroke-width="1" paint-order="fill" stroke-opacity="1" stroke-dasharray="" stroke-linecap="butt" stroke-linejoin="miter" stroke-miterlimit="10" clip-path="none"></path><path d="M 837.5 593 L 837.5 598" fill="none" stroke="#333" stroke-width="1" paint-order="fill" stroke-opacity="1" stroke-dasharray="" stroke-linecap="butt" stroke-linejoin="miter" stroke-miterlimit="10" clip-path="none"></path><text dominant-baseline="middle" alignment-baseline="middle" x="0" y="0" fill="#333" fill-opacity="1" stroke="none" transform="matrix(1,2.4492937051703357e-16,-2.4492937051703357e-16,1,85,593)" clip-path="none" style="font: 12px sans-serif;"><tspan dominant-baseline="middle" alignment-baseline="middle" text-anchor="end" x="0" y="0">0</tspan></text><text dominant-baseline="middle" alignment-baseline="middle" x="0" y="0" fill="#333" fill-opacity="1" stroke="none" transform="matrix(1,2.4492937051703357e-16,-2.4492937051703357e-16,1,85,504.1666564941406)" clip-path="none" style="font: 12px sans-serif;"><tspan dominant-baseline="middle" alignment-baseline="middle" text-anchor="end" x="0" y="0">10</tspan></text><text dominant-baseline="middle" alignment-baseline="middle" x="0" y="0" fill="#333" fill-opacity="1" stroke="none" transform="matrix(1,2.4492937051703357e-16,-2.4492937051703357e-16,1,85,415.33331298828125)" clip-path="none" style="font: 12px sans-serif;"><tspan dominant-baseline="middle" alignment-baseline="middle" text-anchor="end" x="0" y="0">20</tspan></text><text dominant-baseline="middle" alignment-baseline="middle" x="0" y="0" fill="#333" fill-opacity="1" stroke="none" transform="matrix(1,2.4492937051703357e-16,-2.4492937051703357e-16,1,85,326.5)" clip-path="none" style="font: 12px sans-serif;"><tspan dominant-baseline="middle" alignment-baseline="middle" text-anchor="end" x="0" y="0">30</tspan></text><text dominant-baseline="middle" alignment-baseline="middle" x="0" y="0" fill="#333" fill-opacity="1" stroke="none" transform="matrix(1,2.4492937051703357e-16,-2.4492937051703357e-16,1,85,237.66665649414062)" clip-path="none" style="font: 12px sans-serif;"><tspan dominant-baseline="middle" alignment-baseline="middle" text-anchor="end" x="0" y="0">40</tspan></text><text dominant-baseline="middle" alignment-baseline="middle" x="0" y="0" fill="#333" fill-opacity="1" stroke="none" transform="matrix(1,2.4492937051703357e-16,-2.4492937051703357e-16,1,85,148.83334350585938)" clip-path="none" style="font: 12px sans-serif;"><tspan dominant-baseline="middle" alignment-baseline="middle" text-anchor="end" x="0" y="0">50</tspan></text><text dominant-baseline="middle" alignment-baseline="middle" x="0" y="0" fill="#333" fill-opacity="1" stroke="none" transform="matrix(1,2.4492937051703357e-16,-2.4492937051703357e-16,1,85,60)" clip-path="none" style="font: 12px sans-serif;"><tspan dominant-baseline="middle" alignment-baseline="middle" text-anchor="end" x="0" y="0">60</tspan></text><text dominant-baseline="hanging" alignment-baseline="hanging" x="0" y="0" fill="#333" fill-opacity="1" stroke="none" transform="matrix(1,0,0,1,93,601)" clip-path="none" style="font: 12px sans-serif;"><tspan dominant-baseline="hanging" alignment-baseline="hanging" text-anchor="middle" x="0" y="0">0</tspan></text><text dominant-baseline="hanging" alignment-baseline="hanging" x="0" y="0" fill="#333" fill-opacity="1" stroke="none" transform="matrix(1,0,0,1,186,601)" clip-path="none" style="font: 12px sans-serif;"><tspan dominant-baseline="hanging" alignment-baseline="hanging" text-anchor="middle" x="0" y="0">100</tspan></text><text dominant-baseline="hanging" alignment-baseline="hanging" x="0" y="0" fill="#333" fill-opacity="1" stroke="none" transform="matrix(1,0,0,1,279,601)" clip-path="none" style="font: 12px sans-serif;"><tspan dominant-baseline="hanging" alignment-baseline="hanging" text-anchor="middle" x="0" y="0">200</tspan></text><text dominant-baseline="hanging" alignment-baseline="hanging" x="0" y="0" fill="#333" fill-opacity="1" stroke="none" transform="matrix(1,0,0,1,372,601)" clip-path="none" style="font: 12px sans-serif;"><tspan dominant-baseline="hanging" alignment-baseline="hanging" text-anchor="middle" x="0" y="0">300</tspan></text><text dominant-baseline="hanging" alignment-baseline="hanging" x="0" y="0" fill="#333" fill-opacity="1" stroke="none" transform="matrix(1,0,0,1,465,601)" clip-path="none" style="font: 12px sans-serif;"><tspan dominant-baseline="hanging" alignment-baseline="hanging" text-anchor="middle" x="0" y="0">400</tspan></text><text dominant-baseline="hanging" alignment-baseline="hanging" x="0" y="0" fill="#333" fill-opacity="1" stroke="none" transform="matrix(1,0,0,1,558,601)" clip-path="none" style="font: 12px sans-serif;"><tspan dominant-baseline="hanging" alignment-baseline="hanging" text-anchor="middle" x="0" y="0">500</tspan></text><text dominant-baseline="hanging" alignment-baseline="hanging" x="0" y="0" fill="#333" fill-opacity="1" stroke="none" transform="matrix(1,0,0,1,651,601)" clip-path="none" style="font: 12px sans-serif;"><tspan dominant-baseline="hanging" alignment-baseline="hanging" text-anchor="middle" x="0" y="0">600</tspan></text><text dominant-baseline="hanging" alignment-baseline="hanging" x="0" y="0" fill="#333" fill-opacity="1" stroke="none" transform="matrix(1,0,0,1,744,601)" clip-path="none" style="font: 12px sans-serif;"><tspan dominant-baseline="hanging" alignment-baseline="hanging" text-anchor="middle" x="0" y="0">700</tspan></text><text dominant-baseline="hanging" alignment-baseline="hanging" x="0" y="0" fill="#333" fill-opacity="1" stroke="none" transform="matrix(1,0,0,1,837,601)" clip-path="none" style="font: 12px sans-serif;"><tspan dominant-baseline="hanging" alignment-baseline="hanging" text-anchor="middle" x="0" y="0">800</tspan></text><path d="M 1 0 A 1 1 0 1 0 1 0.0001" fill="#2f4554" fill-opacity="0.8" stroke="none" transform="matrix(5,0,0,5,681.6900024414062,504.1666564941406)" clip-path="none"></path><path d="M 1 0 A 1 1 0 1 0 1 0.0001" fill="#2f4554" fill-opacity="0.8" stroke="none" transform="matrix(5,0,0,5,732.8400268554688,388.6833190917969)" clip-path="none"></path><path d="M 1 0 A 1 1 0 1 0 1 0.0001" fill="#2f4554" fill-opacity="0.8" stroke="none" transform="matrix(5,0,0,5,616.5900268554688,593)" clip-path="none"></path><path d="M 1 0 A 1 1 0 1 0 1 0.0001" fill="#2f4554" fill-opacity="0.8" stroke="none" transform="matrix(5,0,0,5,626.8200073242188,521.933349609375)" clip-path="none"></path><path d="M 1 0 A 1 1 0 1 0 1 0.0001" fill="#2f4554" fill-opacity="0.8" stroke="none" transform="matrix(5,0,0,5,697.5,317.6166687011719)" clip-path="none"></path><path d="M 1 0 A 1 1 0 1 0 1 0.0001" fill="#2f4554" fill-opacity="0.8" stroke="none" transform="matrix(5,0,0,5,732.8400268554688,433.1000061035156)" clip-path="none"></path><path d="M 1 0 A 1 1 0 1 0 1 0.0001" fill="#2f4554" fill-opacity="0.8" stroke="none" transform="matrix(5,0,0,5,707.72998046875,370.9166564941406)" clip-path="none"></path><path d="M 1 0 A 1 1 0 1 0 1 0.0001" fill="#2f4554" fill-opacity="0.8" stroke="none" transform="matrix(5,0,0,5,709.5900268554688,370.9166564941406)" clip-path="none"></path><path d="M 1 0 A 1 1 0 1 0 1 0.0001" fill="#2f4554" fill-opacity="0.8" stroke="none" transform="matrix(5,0,0,5,718.8900146484375,424.2166748046875)" clip-path="none"></path><path d="M 1 0 A 1 1 0 1 0 1 0.0001" fill="#2f4554" fill-opacity="0.8" stroke="none" transform="matrix(5,0,0,5,667.739990234375,370.9166564941406)" clip-path="none"></path><path d="M 1 0 A 1 1 0 1 0 1 0.0001" fill="#2f4554" fill-opacity="0.8" stroke="none" transform="matrix(5,0,0,5,704.9400024414062,521.933349609375)" clip-path="none"></path><path d="M 1 0 A 1 1 0 1 0 1 0.0001" fill="#2f4554" fill-opacity="0.8" stroke="none" transform="matrix(5,0,0,5,686.3400268554688,379.79998779296875)" clip-path="none"></path><path d="M 1 0 A 1 1 0 1 0 1 0.0001" fill="#2f4554" fill-opacity="0.8" stroke="none" transform="matrix(5,0,0,5,705.8699951171875,441.98333740234375)" clip-path="none"></path><path d="M 1 0 A 1 1 0 1 0 1 0.0001" fill="#2f4554" fill-opacity="0.8" stroke="none" transform="matrix(5,0,0,5,721.6799926757812,468.6333312988281)" clip-path="none"></path><path d="M 1 0 A 1 1 0 1 0 1 0.0001" fill="#2f4554" fill-opacity="0.8" stroke="none" transform="matrix(5,0,0,5,718.8900146484375,397.5666809082031)" clip-path="none"></path><path d="M 1 0 A 1 1 0 1 0 1 0.0001" fill="#2f4554" fill-opacity="0.8" stroke="none" transform="matrix(5,0,0,5,620.3099975585938,593)" clip-path="none"></path><path d="M 1 0 A 1 1 0 1 0 1 0.0001" fill="#2f4554" fill-opacity="0.8" stroke="none" transform="matrix(5,0,0,5,684.47998046875,379.79998779296875)" clip-path="none"></path><path d="M 1 0 A 1 1 0 1 0 1 0.0001" fill="#2f4554" fill-opacity="0.8" stroke="none" transform="matrix(5,0,0,5,711.4500122070312,255.43333435058594)" clip-path="none"></path><path d="M 1 0 A 1 1 0 1 0 1 0.0001" fill="#2f4554" fill-opacity="0.8" stroke="none" transform="matrix(5,0,0,5,698.4299926757812,495.2833251953125)" clip-path="none"></path><path d="M 1 0 A 1 1 0 1 0 1 0.0001" fill="#2f4554" fill-opacity="0.8" stroke="none" transform="matrix(5,0,0,5,684.47998046875,308.73333740234375)" clip-path="none"></path><path d="M 1 0 A 1 1 0 1 0 1 0.0001" fill="#2f4554" fill-opacity="0.8" stroke="none" transform="matrix(5,0,0,5,722.6099853515625,353.1499938964844)" clip-path="none"></path><path d="M 1 0 A 1 1 0 1 0 1 0.0001" fill="#2f4554" fill-opacity="0.8" stroke="none" transform="matrix(5,0,0,5,704.010009765625,433.1000061035156)" clip-path="none"></path><path d="M 1 0 A 1 1 0 1 0 1 0.0001" fill="#2f4554" fill-opacity="0.8" stroke="none" transform="matrix(5,0,0,5,733.77001953125,202.13333129882812)" clip-path="none"></path><path d="M 1 0 A 1 1 0 1 0 1 0.0001" fill="#2f4554" fill-opacity="0.8" stroke="none" transform="matrix(5,0,0,5,700.2899780273438,308.73333740234375)" clip-path="none"></path><path d="M 1 0 A 1 1 0 1 0 1 0.0001" fill="#2f4554" fill-opacity="0.8" stroke="none" transform="matrix(5,0,0,5,714.239990234375,175.48333740234375)" clip-path="none"></path><path d="M 1 0 A 1 1 0 1 0 1 0.0001" fill="#2f4554" fill-opacity="0.8" stroke="none" transform="matrix(5,0,0,5,626.8200073242188,593)" clip-path="none"></path><path d="M 1 0 A 1 1 0 1 0 1 0.0001" fill="#2f4554" fill-opacity="0.8" stroke="none" transform="matrix(5,0,0,5,718.8900146484375,335.3833312988281)" clip-path="none"></path><path d="M 1 0 A 1 1 0 1 0 1 0.0001" fill="#2f4554" fill-opacity="0.8" stroke="none" transform="matrix(5,0,0,5,747.719970703125,450.8666687011719)" clip-path="none"></path><path d="M 1 0 A 1 1 0 1 0 1 0.0001" fill="#2f4554" fill-opacity="0.8" stroke="none" transform="matrix(5,0,0,5,629.6099853515625,593)" clip-path="none"></path><path d="M 1 0 A 1 1 0 1 0 1 0.0001" fill="#2f4554" fill-opacity="0.8" stroke="none" transform="matrix(5,0,0,5,679.8300170898438,406.45001220703125)" clip-path="none"></path><path d="M 1 0 A 1 1 0 1 0 1 0.0001" fill="#2f4554" fill-opacity="0.8" stroke="none" transform="matrix(5,0,0,5,733.77001953125,406.45001220703125)" clip-path="none"></path><path d="M 1 0 A 1 1 0 1 0 1 0.0001" fill="#2f4554" fill-opacity="0.8" stroke="none" transform="matrix(5,0,0,5,621.239990234375,593)" clip-path="none"></path><path d="M 1 0 A 1 1 0 1 0 1 0.0001" fill="#2f4554" fill-opacity="0.8" stroke="none" transform="matrix(5,0,0,5,706.7999877929688,308.73333740234375)" clip-path="none"></path><path d="M 1 0 A 1 1 0 1 0 1 0.0001" fill="#2f4554" fill-opacity="0.8" stroke="none" transform="matrix(5,0,0,5,674.25,362.0333251953125)" clip-path="none"></path><path d="M 1 0 A 1 1 0 1 0 1 0.0001" fill="#2f4554" fill-opacity="0.8" stroke="none" transform="matrix(5,0,0,5,752.3699951171875,273.20001220703125)" clip-path="none"></path><path d="M 1 0 A 1 1 0 1 0 1 0.0001" fill="#2f4554" fill-opacity="0.8" stroke="none" transform="matrix(5,0,0,5,624.030029296875,593)" clip-path="none"></path><path d="M 1 0 A 1 1 0 1 0 1 0.0001" fill="#2f4554" fill-opacity="0.8" stroke="none" transform="matrix(5,0,0,5,706.7999877929688,486.3999938964844)" clip-path="none"></path><path d="M 1 0 A 1 1 0 1 0 1 0.0001" fill="#2f4554" fill-opacity="0.8" stroke="none" transform="matrix(5,0,0,5,665.8800048828125,450.8666687011719)" clip-path="none"></path><path d="M 1 0 A 1 1 0 1 0 1 0.0001" fill="#2f4554" fill-opacity="0.8" stroke="none" transform="matrix(5,0,0,5,684.47998046875,308.73333740234375)" clip-path="none"></path><path d="M 1 0 A 1 1 0 1 0 1 0.0001" fill="#2f4554" fill-opacity="0.8" stroke="none" transform="matrix(5,0,0,5,690.0599975585938,450.8666687011719)" clip-path="none"></path><path d="M 1 0 A 1 1 0 1 0 1 0.0001" fill="#2f4554" fill-opacity="0.8" stroke="none" transform="matrix(5,0,0,5,732.8400268554688,459.75)" clip-path="none"></path><path d="M 1 0 A 1 1 0 1 0 1 0.0001" fill="#2f4554" fill-opacity="0.8" stroke="none" transform="matrix(5,0,0,5,630.5399780273438,593)" clip-path="none"></path><path d="M 1 0 A 1 1 0 1 0 1 0.0001" fill="#2f4554" fill-opacity="0.8" stroke="none" transform="matrix(5,0,0,5,704.9400024414062,521.933349609375)" clip-path="none"></path><path d="M 1 0 A 1 1 0 1 0 1 0.0001" fill="#2f4554" fill-opacity="0.8" stroke="none" transform="matrix(5,0,0,5,738.4199829101562,504.1666564941406)" clip-path="none"></path><path d="M 1 0 A 1 1 0 1 0 1 0.0001" fill="#2f4554" fill-opacity="0.8" stroke="none" transform="matrix(5,0,0,5,692.8499755859375,122.18333435058594)" clip-path="none"></path><path d="M 1 0 A 1 1 0 1 0 1 0.0001" fill="#2f4554" fill-opacity="0.8" stroke="none" transform="matrix(5,0,0,5,724.469970703125,344.26666259765625)" clip-path="none"></path><path d="M 1 0 A 1 1 0 1 0 1 0.0001" fill="#2f4554" fill-opacity="0.8" stroke="none" transform="matrix(5,0,0,5,710.52001953125,539.7000122070312)" clip-path="none"></path><path d="M 1 0 A 1 1 0 1 0 1 0.0001" fill="#2f4554" fill-opacity="0.8" stroke="none" transform="matrix(5,0,0,5,701.219970703125,219.89999389648438)" clip-path="none"></path><path d="M 1 0 A 1 1 0 1 0 1 0.0001" fill="#2f4554" fill-opacity="0.8" stroke="none" transform="matrix(5,0,0,5,729.1199951171875,424.2166748046875)" clip-path="none"></path><path d="M 1 0 A 1 1 0 1 0 1 0.0001" fill="#2f4554" fill-opacity="0.8" stroke="none" transform="matrix(5,0,0,5,718.8900146484375,264.3166809082031)" clip-path="none"></path><path d="M 1 0 A 1 1 0 1 0 1 0.0001" fill="#2f4554" fill-opacity="0.8" stroke="none" transform="matrix(5,0,0,5,710.52001953125,388.6833190917969)" clip-path="none"></path><path d="M 1 0 A 1 1 0 1 0 1 0.0001" fill="#2f4554" fill-opacity="0.8" stroke="none" transform="matrix(5,0,0,5,636.1199951171875,593)" clip-path="none"></path><path d="M 1 0 A 1 1 0 1 0 1 0.0001" fill="#2f4554" fill-opacity="0.8" stroke="none" transform="matrix(5,0,0,5,721.6799926757812,521.933349609375)" clip-path="none"></path><path d="M 1 0 A 1 1 0 1 0 1 0.0001" fill="#2f4554" fill-opacity="0.8" stroke="none" transform="matrix(5,0,0,5,575.6699829101562,530.816650390625)" clip-path="none"></path><path d="M 1 0 A 1 1 0 1 0 1 0.0001" fill="#2f4554" fill-opacity="0.8" stroke="none" transform="matrix(5,0,0,5,683.5499877929688,379.79998779296875)" clip-path="none"></path><path d="M 1 0 A 1 1 0 1 0 1 0.0001" fill="#2f4554" fill-opacity="0.8" stroke="none" transform="matrix(5,0,0,5,718.8900146484375,326.5)" clip-path="none"></path><path d="M 1 0 A 1 1 0 1 0 1 0.0001" fill="#2f4554" fill-opacity="0.8" stroke="none" transform="matrix(5,0,0,5,705.8699951171875,459.75)" clip-path="none"></path><path d="M 1 0 A 1 1 0 1 0 1 0.0001" fill="#2f4554" fill-opacity="0.8" stroke="none" transform="matrix(5,0,0,5,688.2000122070312,370.9166564941406)" clip-path="none"></path><path d="M 1 0 A 1 1 0 1 0 1 0.0001" fill="#2f4554" fill-opacity="0.8" stroke="none" transform="matrix(5,0,0,5,621.239990234375,593)" clip-path="none"></path><path d="M 1 0 A 1 1 0 1 0 1 0.0001" fill="#2f4554" fill-opacity="0.8" stroke="none" transform="matrix(5,0,0,5,682.6199951171875,282.0833435058594)" clip-path="none"></path><path d="M 1 0 A 1 1 0 1 0 1 0.0001" fill="#2f4554" fill-opacity="0.8" stroke="none" transform="matrix(5,0,0,5,704.010009765625,246.5500030517578)" clip-path="none"></path><path d="M 1 0 A 1 1 0 1 0 1 0.0001" fill="#2f4554" fill-opacity="0.8" stroke="none" transform="matrix(5,0,0,5,690.0599975585938,424.2166748046875)" clip-path="none"></path><path d="M 1 0 A 1 1 0 1 0 1 0.0001" fill="#2f4554" fill-opacity="0.8" stroke="none" transform="matrix(5,0,0,5,720.75,308.73333740234375)" clip-path="none"></path><path d="M 1 0 A 1 1 0 1 0 1 0.0001" fill="#2f4554" fill-opacity="0.8" stroke="none" transform="matrix(5,0,0,5,687.27001953125,486.3999938964844)" clip-path="none"></path><path d="M 1 0 A 1 1 0 1 0 1 0.0001" fill="#2f4554" fill-opacity="0.8" stroke="none" transform="matrix(5,0,0,5,695.6400146484375,317.6166687011719)" clip-path="none"></path><path d="M 1 0 A 1 1 0 1 0 1 0.0001" fill="#2f4554" fill-opacity="0.8" stroke="none" transform="matrix(5,0,0,5,706.7999877929688,353.1499938964844)" clip-path="none"></path><path d="M 1 0 A 1 1 0 1 0 1 0.0001" fill="#2f4554" fill-opacity="0.8" stroke="none" transform="matrix(5,0,0,5,615.6599731445312,593)" clip-path="none"></path><path d="M 1 0 A 1 1 0 1 0 1 0.0001" fill="#2f4554" fill-opacity="0.8" stroke="none" transform="matrix(5,0,0,5,710.52001953125,299.8500061035156)" clip-path="none"></path><path d="M 1 0 A 1 1 0 1 0 1 0.0001" fill="#2f4554" fill-opacity="0.8" stroke="none" transform="matrix(5,0,0,5,709.5900268554688,459.75)" clip-path="none"></path><path d="M 1 0 A 1 1 0 1 0 1 0.0001" fill="#2f4554" fill-opacity="0.8" stroke="none" transform="matrix(5,0,0,5,666.8099975585938,495.2833251953125)" clip-path="none"></path><path d="M 1 0 A 1 1 0 1 0 1 0.0001" fill="#2f4554" fill-opacity="0.8" stroke="none" transform="matrix(5,0,0,5,624.030029296875,593)" clip-path="none"></path><path d="M 1 0 A 1 1 0 1 0 1 0.0001" fill="#2f4554" fill-opacity="0.8" stroke="none" transform="matrix(5,0,0,5,720.75,379.79998779296875)" clip-path="none"></path><path d="M 1 0 A 1 1 0 1 0 1 0.0001" fill="#2f4554" fill-opacity="0.8" stroke="none" transform="matrix(5,0,0,5,711.4500122070312,477.51666259765625)" clip-path="none"></path><path d="M 1 0 A 1 1 0 1 0 1 0.0001" fill="#2f4554" fill-opacity="0.8" stroke="none" transform="matrix(5,0,0,5,727.260009765625,273.20001220703125)" clip-path="none"></path><path d="M 1 0 A 1 1 0 1 0 1 0.0001" fill="#2f4554" fill-opacity="0.8" stroke="none" transform="matrix(5,0,0,5,702.1500244140625,495.2833251953125)" clip-path="none"></path><path d="M 1 0 A 1 1 0 1 0 1 0.0001" fill="#2f4554" fill-opacity="0.8" stroke="none" transform="matrix(5,0,0,5,730.97998046875,353.1499938964844)" clip-path="none"></path><path d="M 1 0 A 1 1 0 1 0 1 0.0001" fill="#2f4554" fill-opacity="0.8" stroke="none" transform="matrix(5,0,0,5,700.2899780273438,317.6166687011719)" clip-path="none"></path><path d="M 1 0 A 1 1 0 1 0 1 0.0001" fill="#2f4554" fill-opacity="0.8" stroke="none" transform="matrix(5,0,0,5,727.260009765625,495.2833251953125)" clip-path="none"></path><path d="M 1 0 A 1 1 0 1 0 1 0.0001" fill="#2f4554" fill-opacity="0.8" stroke="none" transform="matrix(5,0,0,5,546.8400268554688,335.3833312988281)" clip-path="none"></path><path d="M 1 0 A 1 1 0 1 0 1 0.0001" fill="#2f4554" fill-opacity="0.8" stroke="none" transform="matrix(5,0,0,5,676.1099853515625,513.0499877929688)" clip-path="none"></path><path d="M 1 0 A 1 1 0 1 0 1 0.0001" fill="#2f4554" fill-opacity="0.8" stroke="none" transform="matrix(5,0,0,5,697.5,424.2166748046875)" clip-path="none"></path><path d="M 1 0 A 1 1 0 1 0 1 0.0001" fill="#2f4554" fill-opacity="0.8" stroke="none" transform="matrix(5,0,0,5,658.4400024414062,593)" clip-path="none"></path><path d="M 1 0 A 1 1 0 1 0 1 0.0001" fill="#2f4554" fill-opacity="0.8" stroke="none" transform="matrix(5,0,0,5,668.6699829101562,344.26666259765625)" clip-path="none"></path><path d="M 1 0 A 1 1 0 1 0 1 0.0001" fill="#2f4554" fill-opacity="0.8" stroke="none" transform="matrix(5,0,0,5,704.9400024414062,264.3166809082031)" clip-path="none"></path><path d="M 1 0 A 1 1 0 1 0 1 0.0001" fill="#2f4554" fill-opacity="0.8" stroke="none" transform="matrix(5,0,0,5,718.8900146484375,335.3833312988281)" clip-path="none"></path><path d="M 1 0 A 1 1 0 1 0 1 0.0001" fill="#2f4554" fill-opacity="0.8" stroke="none" transform="matrix(5,0,0,5,698.4299926757812,317.6166687011719)" clip-path="none"></path><path d="M 1 0 A 1 1 0 1 0 1 0.0001" fill="#2f4554" fill-opacity="0.8" stroke="none" transform="matrix(5,0,0,5,705.8699951171875,397.5666809082031)" clip-path="none"></path><path d="M 1 0 A 1 1 0 1 0 1 0.0001" fill="#2f4554" fill-opacity="0.8" stroke="none" transform="matrix(5,0,0,5,664.9500122070312,122.18333435058594)" clip-path="none"></path><path d="M 1 0 A 1 1 0 1 0 1 0.0001" fill="#2f4554" fill-opacity="0.8" stroke="none" transform="matrix(5,0,0,5,570.0900268554688,450.8666687011719)" clip-path="none"></path><path d="M 1 0 A 1 1 0 1 0 1 0.0001" fill="#2f4554" fill-opacity="0.8" stroke="none" transform="matrix(5,0,0,5,629.6099853515625,593)" clip-path="none"></path><path d="M 1 0 A 1 1 0 1 0 1 0.0001" fill="#2f4554" fill-opacity="0.8" stroke="none" transform="matrix(5,0,0,5,717.030029296875,388.6833190917969)" clip-path="none"></path><path d="M 1 0 A 1 1 0 1 0 1 0.0001" fill="#2f4554" fill-opacity="0.8" stroke="none" transform="matrix(5,0,0,5,691.9199829101562,353.1499938964844)" clip-path="none"></path><path d="M 1 0 A 1 1 0 1 0 1 0.0001" fill="#2f4554" fill-opacity="0.8" stroke="none" transform="matrix(5,0,0,5,692.8499755859375,326.5)" clip-path="none"></path><path d="M 1 0 A 1 1 0 1 0 1 0.0001" fill="#2f4554" fill-opacity="0.8" stroke="none" transform="matrix(5,0,0,5,626.8200073242188,513.0499877929688)" clip-path="none"></path><path d="M 1 0 A 1 1 0 1 0 1 0.0001" fill="#2f4554" fill-opacity="0.8" stroke="none" transform="matrix(5,0,0,5,706.7999877929688,388.6833190917969)" clip-path="none"></path><path d="M 1 0 A 1 1 0 1 0 1 0.0001" fill="#2f4554" fill-opacity="0.8" stroke="none" transform="matrix(5,0,0,5,621.239990234375,593)" clip-path="none"></path><path d="M 1 0 A 1 1 0 1 0 1 0.0001" fill="#2f4554" fill-opacity="0.8" stroke="none" transform="matrix(5,0,0,5,736.5599975585938,406.45001220703125)" clip-path="none"></path><path d="M 1 0 A 1 1 0 1 0 1 0.0001" fill="#2f4554" fill-opacity="0.8" stroke="none" transform="matrix(5,0,0,5,706.7999877929688,370.9166564941406)" clip-path="none"></path><path d="M 1 0 A 1 1 0 1 0 1 0.0001" fill="#2f4554" fill-opacity="0.8" stroke="none" transform="matrix(5,0,0,5,744.9299926757812,388.6833190917969)" clip-path="none"></path><path d="M 1 0 A 1 1 0 1 0 1 0.0001" fill="#2f4554" fill-opacity="0.8" stroke="none" transform="matrix(5,0,0,5,633.3300170898438,593)" clip-path="none"></path><path d="M 1 0 A 1 1 0 1 0 1 0.0001" fill="#2f4554" fill-opacity="0.8" stroke="none" transform="matrix(5,0,0,5,709.5900268554688,370.9166564941406)" clip-path="none"></path><path d="M 1 0 A 1 1 0 1 0 1 0.0001" fill="#2f4554" fill-opacity="0.8" stroke="none" transform="matrix(5,0,0,5,690.989990234375,264.3166809082031)" clip-path="none"></path><path d="M 1 0 A 1 1 0 1 0 1 0.0001" fill="#2f4554" fill-opacity="0.8" stroke="none" transform="matrix(5,0,0,5,744.9299926757812,264.3166809082031)" clip-path="none"></path><path d="M -5 -5 L 215.2656 -5 L 215.2656 19 L -5 19 L -5 -5 Z" fill="rgba(0,0,0,0)" fill-opacity="1" stroke="#ccc" stroke-width="0" paint-order="fill" stroke-opacity="1" stroke-dasharray="" stroke-linecap="butt" stroke-linejoin="miter" stroke-miterlimit="10" transform="matrix(1,0,0,1,359.8671875,5)" clip-path="none"></path><path d="M 19.5 7 A 7 7 0 1 0 19.5 7.0007" fill="#ccc" fill-opacity="1" stroke="none" transform="matrix(1,0,0,1,354.3671875,5)" clip-path="none"></path><text dominant-baseline="middle" alignment-baseline="middle" x="30" y="7" fill="#ccc" fill-opacity="1" stroke="none" transform="matrix(1,0,0,1,354.3671875,5)" clip-path="none" style="font: 12px sans-serif;"><tspan dominant-baseline="middle" alignment-baseline="middle" text-anchor="start" x="30" y="7">Kappa</tspan></text><path d="M 19.5 7 A 7 7 0 1 0 19.5 7.0007" fill="#2f4554" fill-opacity="1" stroke="none" transform="matrix(1,0,0,1,425.060546875,5)" clip-path="none"></path><text dominant-baseline="middle" alignment-baseline="middle" x="30" y="7" fill="#333" fill-opacity="1" stroke="none" transform="matrix(1,0,0,1,425.060546875,5)" clip-path="none" style="font: 12px sans-serif;"><tspan dominant-baseline="middle" alignment-baseline="middle" text-anchor="start" x="30" y="7">Heavy</tspan></text><path d="M 19.5 7 A 7 7 0 1 0 19.5 7.0007" fill="#ccc" fill-opacity="1" stroke="none" transform="matrix(1,0,0,1,494.171875,5)" clip-path="none"></path><text dominant-baseline="middle" alignment-baseline="middle" x="30" y="7" fill="#ccc" fill-opacity="1" stroke="none" transform="matrix(1,0,0,1,494.171875,5)" clip-path="none" style="font: 12px sans-serif;"><tspan dominant-baseline="middle" alignment-baseline="middle" text-anchor="start" x="30" y="7">Lambda</tspan></text><path fill="rgba(0,0,0,0)" fill-opacity="1" stroke="#ccc" stroke-width="0" paint-order="fill" stroke-opacity="1" stroke-dasharray="" stroke-linecap="butt" stroke-linejoin="miter" stroke-miterlimit="10" transform="matrix(1,0,0,1,5,5)" clip-path="none"></path><text dominant-baseline="hanging" alignment-baseline="hanging" x="0" y="0" fill="#333" fill-opacity="1" stroke="none" transform="matrix(1,0,0,1,5,5)" clip-path="none" style="font: bolder 18px sans-serif;"><tspan dominant-baseline="hanging" alignment-baseline="hanging" text-anchor="start" x="0" y="0"></tspan></text></svg>